<svg xmlns="http://www.w3.org/2000/svg" viewBox="0 0 80 80" fill="none">
  <rect width="80" height="80" rx="16" fill="#232F3E"/>
  <path d="M28.5 45.5c0 1.2.1 2.1.4 2.8.2.5.5 1 .9 1.6.1.2.2.3.2.5 0 .2-.1.4-.4.6l-1.3.9c-.2.1-.3.2-.5.2-.2 0-.4-.1-.6-.3-.3-.3-.5-.6-.7-1-.2-.4-.4-.8-.6-1.3-1.5 1.8-3.4 2.7-5.7 2.7-1.6 0-2.9-.5-3.9-1.4-1-.9-1.5-2.2-1.5-3.8 0-1.7.6-3 1.8-4.1 1.2-1 2.8-1.5 4.8-1.5.7 0 1.4 0 2.1.1.7.1 1.5.2 2.3.4v-1.4c0-1.5-.3-2.6-1-3.2-.6-.7-1.7-1-3.3-1-.7 0-1.4.1-2.2.3-.7.2-1.5.5-2.2.8-.3.2-.6.2-.7.3-.1 0-.2.1-.3.1-.2 0-.4-.2-.4-.5v-1c0-.3 0-.5.1-.6.1-.1.3-.3.6-.4.7-.4 1.5-.7 2.5-.9 1-.3 2-.4 3.1-.4 2.4 0 4.1.5 5.2 1.6 1.1 1.1 1.6 2.7 1.6 4.9v6.4h.1zm-7.8 2.9c.7 0 1.3-.1 2.1-.4.7-.3 1.3-.7 1.8-1.3.3-.4.5-.8.7-1.3.1-.5.2-1.1.2-1.8v-.9c-.6-.1-1.2-.2-1.9-.3-.7-.1-1.3-.1-2-.1-1.3 0-2.3.3-2.9.8-.7.5-1 1.3-1 2.3 0 .9.2 1.6.7 2.1.5.6 1.3.9 2.3.9zm15.4 2c-.3 0-.5 0-.6-.1-.2-.1-.3-.3-.4-.6l-4.4-14.5c-.1-.2-.2-.4-.2-.6 0-.2.1-.4.4-.4h2c.3 0 .5 0 .6.1.2.1.3.3.4.6l3.1 12.3 2.9-12.3c.1-.3.2-.5.3-.6.2-.1.4-.1.7-.1h1.6c.3 0 .5 0 .7.1.2.1.3.3.3.6l2.9 12.5 3.2-12.5c.1-.3.2-.5.4-.6.2-.1.4-.1.6-.1h1.9c.3 0 .4.1.4.4 0 .1 0 .2 0 .3 0 .1-.1.2-.1.3l-4.5 14.5c-.1.3-.2.5-.4.6-.2.1-.4.1-.6.1h-1.7c-.3 0-.5 0-.7-.1-.2-.1-.3-.3-.3-.7l-2.9-12-2.8 12c-.1.3-.2.5-.3.7-.2.1-.4.1-.7.1h-1.7zm24.6.7c-1 0-2.1-.1-3.1-.4-1-.3-1.8-.6-2.3-1-.3-.2-.5-.4-.6-.6 0-.1-.1-.3-.1-.4v-1.1c0-.4.1-.5.4-.5.1 0 .2 0 .3.1.1 0 .3.1.5.2.7.3 1.4.6 2.2.8.8.2 1.5.3 2.3.3 1.2 0 2.2-.2 2.8-.7.6-.5 1-1.1 1-2 0-.6-.2-1.1-.5-1.4-.4-.4-1-.7-2-1l-2.8-.9c-1.4-.5-2.5-1.1-3.1-2-.6-.8-.9-1.8-.9-2.8 0-.8.2-1.5.5-2.2.4-.6.8-1.2 1.4-1.6.6-.4 1.3-.8 2-.1 .8-.2 1.6-.4 2.5-.4.4 0 .9 0 1.4.1.5.1.9.2 1.3.3.4.1.8.3 1.1.4.3.2.6.3.7.5.2.2.3.3.4.5 0 .2.1.4.1.6v1c0 .4-.1.5-.4.5-.1 0-.3-.1-.6-.2-.9-.4-1.9-.6-3-.6-1.1 0-2 .2-2.6.6-.6.4-.9 1-.9 1.9 0 .6.2 1.1.6 1.5.4.4 1.1.8 2.1 1.1l2.8.9c1.4.5 2.4 1.1 3 1.9.6.8.9 1.7.9 2.7 0 .8-.2 1.6-.5 2.3-.4.7-.8 1.2-1.4 1.7-.6.5-1.3.8-2.1 1.1-.9.3-1.8.4-2.8.4z" fill="#FF9900"/>
  <path d="M58.2 56.5c-6.3 4.7-15.5 7.2-23.4 7.2-11.1 0-21-4.1-28.6-10.9-.6-.5-.1-1.3.6-.8 8.1 4.7 18.2 7.6 28.6 7.6 7 0 14.7-1.5 21.8-4.5 1.1-.5 2 .7.9 1.4z" fill="#FF9900"/>
  <path d="M60.5 53.8c-.8-1-5.3-.5-7.3-.2-.6.1-.7-.5-.2-.8 3.6-2.5 9.4-1.8 10.1-.9.7.8-.2 6.6-3.5 9.4-.5.4-1 .2-.8-.4.7-1.9 2.4-6.1 1.6-7.1z" fill="#FF9900"/>
</svg>
