<svg xmlns="http://www.w3.org/2000/svg" viewBox="0 0 80 80" fill="none">
  <rect width="80" height="80" rx="16" fill="#1BA94C"/>
  <path d="M40 14L18 26v28l22 12 22-12V26L40 14zm-2.5 38.5h-3v-8.3l-4.5 5.3-4.5-5.3v8.3h-3V27.5h3l4.5 5.3 4.5-5.3h3v25zm15 0h-3v-8.3l-4.5 5.3-4.5-5.3v8.3h-3V27.5h3l4.5 5.3 4.5-5.3h3v25z" fill="#fff" fill-opacity="0"/>
  <path d="M55.3 25.2c-.4-.7-1.2-.7-4.3-.7h-2.2c-.5 0-.7.1-.9.5-.2.4-3.4 6.5-3.4 6.5L40 22.8c-.2-.4-.4-.5-.9-.5h-2.6c-3 0-3.9 0-4.3.7-.3.5-.3 1.1-.3 4v26.1c0 2.9 0 3.4.3 4 .4.7 1.2.7 4.3.7h2.2c.5 0 .7-.1.9-.5.2-.4 3.4-6.5 3.4-6.5l4.5 8.7c.2.4.4.5.9.5h2.6c3 0 3.9 0 4.3-.7.3-.5.3-1.1.3-4V29.2c0-2.9 0-3.4-.3-4zM37 47.8c0 .5 0 .7-.2.8-.1.1-.3.1-.7.1h-1c-.5 0-.6 0-.7-.1-.2-.1-.2-.3-.2-.8V32.2c0-.5 0-.7.2-.8.1-.1.3-.1.7-.1h1c.5 0 .6 0 .7.1.2.1.2.3.2.8v15.6zm9 0c0 .5 0 .7-.2.8-.1.1-.3.1-.7.1h-1c-.5 0-.6 0-.7-.1-.2-.1-.2-.3-.2-.8V32.2c0-.5 0-.7.2-.8.1-.1.3-.1.7-.1h1c.5 0 .6 0 .7.1.2.1.2.3.2.8v15.6z" fill="#fff"/>
</svg>
